# File created by Blade
# Date/Time:  Tue Apr 07 20:45:22 2015
# Frame Rate: 120.000 fps
#------------------------------------------------------
:FULLY-SPECIFIED
:DEGREES
970
root 0.769943 32.963220 -2.022555 9.488436 1.529770 -1.464119
Spine -8.144991 -3.285980 -1.578820
Head 9.233722 -3.097572 -1.117173
LeftShoulder -22.538415 36.227517 22.318023
LeftArm 57.712461 -60.963387 -53.535375
LeftForeArm 15.777787 0.000000 1.798203
LeftHand 3.207854 -0.000000 10.827792
LeftHandThumb1 -26.253704 0.000000 33.147579
RightShoulder -7.912731 6.644187 -33.325375
RightArm 6.761194 24.663675 42.883178
RightForeArm -11.807430 -0.000000 1.251365
RightHand 2.930233 0.000000 -4.309764
RightHandThumb1 -24.326973 -0.000000 -32.862282
LeftUpLeg -1.294584 -10.364504 3.112968
LeftLeg -4.422512 -0.000000 0.000000
LeftFoot -4.568893 6.328540 -16.982266
LeftToeBase -16.145148 -0.000000 0.000000
RightUpLeg -3.357534 0.797856 3.432288
RightLeg -1.977362 -0.000000 0.000000
RightFoot -9.551277 -9.912949 11.873807
RightToeBase 4.221720 -0.000000 -0.000000
971
root 0.773601 32.947044 -2.027783 9.333028 1.593946 -1.415248
Spine -7.922830 -3.317877 -1.517777
Head 8.929414 -3.098024 -1.274011
LeftShoulder -22.561255 36.212638 22.242511
LeftArm 57.644026 -60.898583 -53.435746
LeftForeArm 15.573794 -0.000000 1.567217
LeftHand 3.007558 -0.000000 10.496999
LeftHandThumb1 -26.253704 0.000000 33.147579
RightShoulder -7.973027 6.587189 -33.340097
RightArm 6.682352 24.921881 42.737700
RightForeArm -11.747823 -0.000000 1.181920
RightHand 2.705146 -0.000000 -3.939777
RightHandThumb1 -24.326973 -0.000000 -32.862282
LeftUpLeg -1.046142 -10.236216 3.010467
LeftLeg -4.624238 -0.000000 0.000000
LeftFoot -4.484146 6.400187 -16.960085
LeftToeBase -16.271689 -0.000000 0.000000
RightUpLeg -3.105947 0.697985 3.395742
RightLeg -2.094316 -0.000000 0.000000
RightFoot -10.024877 -10.533363 11.825026
RightToeBase 4.788594 -0.000000 -0.000000
972
root 0.778428 32.931849 -2.030859 9.189491 1.682050 -1.373607
Spine -7.719059 -3.372353 -1.447658
Head 8.648788 -3.112485 -1.416710
LeftShoulder -22.606508 36.216611 22.176393
LeftArm 57.584558 -60.824371 -53.384869
LeftForeArm 15.318946 -0.000000 1.374022
LeftHand 3.070522 -0.000000 10.223029
LeftHandThumb1 -26.253704 0.000000 33.147579
RightShoulder -8.058611 6.620920 -33.327866
RightArm 6.562554 25.067236 42.536105
RightForeArm -11.775843 0.000000 1.115062
RightHand 2.544206 -0.000000 -3.680891
RightHandThumb1 -24.326973 -0.000000 -32.862282
LeftUpLeg -0.828431 -10.160341 2.918058
LeftLeg -4.786791 -0.000000 0.000000
LeftFoot -4.458595 6.564422 -17.000483
LeftToeBase -16.355005 -0.000000 0.000000
RightUpLeg -2.854273 0.563190 3.366179
RightLeg -2.232715 -0.000000 0.000000
RightFoot -10.416014 -11.053071 11.744456
RightToeBase 5.195999 -0.000000 -0.000000
973
root 0.781095 32.920085 -2.035519 9.117757 1.779203 -1.340104
Spine -7.594705 -3.419784 -1.383156
Head 8.365225 -3.034390 -1.546510
LeftShoulder -22.650286 36.254277 22.071623
LeftArm 57.563097 -60.772649 -53.299114
LeftForeArm 15.215480 -0.000000 1.179249
LeftHand 3.048183 -0.000000 9.949784
LeftHandThumb1 -26.253704 0.000000 33.147579
RightShoulder -8.182538 6.523235 -33.250040
RightArm 6.552931 25.221527 42.349167
RightForeArm -11.692031 0.000000 1.066192
RightHand 2.503136 0.000000 -3.530357
RightHandThumb1 -24.326973 -0.000000 -32.862282
LeftUpLeg -0.707033 -10.079682 2.851680
LeftLeg -4.925242 -0.000000 0.000000
LeftFoot -4.407437 6.752970 -17.009159
LeftToeBase -16.283191 -0.000000 0.000000
RightUpLeg -2.701334 0.397881 3.346786
RightLeg -2.333434 -0.000000 0.000000
RightFoot -10.711054 -11.361393 11.713741
RightToeBase 5.460199 -0.000000 -0.000000
974
root 0.783696 32.911158 -2.038512 9.089819 1.870216 -1.309886
Spine -7.544731 -3.451495 -1.309489
Head 8.169441 -3.052036 -1.656243
LeftShoulder -22.654858 36.250404 21.996820
LeftArm 57.407889 -60.676348 -53.126167
LeftForeArm 15.151322 0.000000 1.077378
LeftHand 3.419199 -0.000000 9.596257
LeftHandThumb1 -26.253704 0.000000 33.147579
RightShoulder -8.239717 6.401767 -33.159562
RightArm 6.445607 25.481659 42.122650
RightForeArm -11.790865 -0.000000 1.054578
RightHand 2.393985 0.000000 -3.124780
RightHandThumb1 -24.326973 -0.000000 -32.862282
LeftUpLeg -0.629640 -10.193039 2.822189
LeftLeg -5.074090 -0.000000 0.000000
LeftFoot -4.365147 7.033391 -17.164889
LeftToeBase -16.091996 -0.000000 0.000000
RightUpLeg -2.604924 0.258883 3.325539
RightLeg -2.415445 -0.000000 0.000000
RightFoot -10.881597 -11.464666 11.615092
RightToeBase 5.761853 -0.000000 -0.000000
975
root 0.787368 32.905662 -2.041305 9.132641 1.969370 -1.311868
Spine -7.588084 -3.461565 -1.190335
Head 8.018541 -3.100517 -1.779041
LeftShoulder -22.690375 36.378811 21.859281
LeftArm 57.414757 -60.609576 -53.090693
LeftForeArm 15.039792 -0.000000 1.027026
LeftHand 3.518827 0.000000 9.441644
LeftHandThumb1 -26.253704 0.000000 33.147579
RightShoulder -8.346891 6.285703 -33.082981
RightArm 6.349534 25.511425 41.903678
RightForeArm -11.781183 -0.000000 1.045821
RightHand 2.342662 0.000000 -3.014830
RightHandThumb1 -24.326973 -0.000000 -32.862282
LeftUpLeg -0.655362 -10.181558 2.813663
LeftLeg -5.178835 -0.000000 0.000000
LeftFoot -4.224221 7.288719 -17.004350
LeftToeBase -16.186205 -0.000000 0.000000
RightUpLeg -2.598525 0.178455 3.333408
RightLeg -2.484567 -0.000000 0.000000
RightFoot -10.893103 -11.464804 11.458741
RightToeBase 5.861686 -0.000000 -0.000000
976
root 0.790954 32.903142 -2.041949 9.214412 2.057733 -1.335892
Spine -7.698116 -3.480486 -1.036725
Head 7.926703 -3.145251 -1.895167
LeftShoulder -22.726778 36.489421 21.709889
LeftArm 57.547079 -60.603659 -53.213668
LeftForeArm 15.083194 -0.000000 0.969416
LeftHand 3.567796 0.000000 9.208549
LeftHandThumb1 -26.253704 0.000000 33.147579
RightShoulder -8.418750 6.182240 -33.024062
RightArm 6.236746 25.525279 41.709139
RightForeArm -11.823564 0.000000 1.028288
RightHand 2.346204 -0.000000 -2.987690
RightHandThumb1 -24.326973 -0.000000 -32.862282
LeftUpLeg -0.733166 -10.186299 2.836214
LeftLeg -5.247306 -0.000000 0.000000
LeftFoot -4.138404 7.486524 -16.912997
LeftToeBase -15.844175 -0.000000 0.000000
RightUpLeg -2.644041 0.137839 3.360538
RightLeg -2.551538 -0.000000 0.000000
RightFoot -10.699066 -11.415592 11.182600
RightToeBase 5.795355 -0.000000 -0.000000
977
root 0.794497 32.904981 -2.041964 9.334762 2.110501 -1.361059
Spine -7.860587 -3.471775 -0.896339
Head 7.864172 -3.142303 -1.987406
LeftShoulder -22.778800 36.613726 21.551959
LeftArm 57.949991 -60.670311 -53.623730
LeftForeArm 15.345712 -0.000000 0.905923
LeftHand 3.594979 -0.000000 9.007223
LeftHandThumb1 -26.253704 0.000000 33.147579
RightShoulder -8.479606 6.082972 -32.961582
RightArm 6.079082 25.497470 41.529733
RightForeArm -11.848808 0.000000 1.063165
RightHand 2.274940 -0.000000 -2.867082
RightHandThumb1 -24.326973 -0.000000 -32.862282
LeftUpLeg -0.863255 -10.190145 2.862076
LeftLeg -5.275521 -0.000000 0.000000
LeftFoot -4.065564 7.657245 -16.869045
LeftToeBase -15.700052 -0.000000 0.000000
RightUpLeg -2.746208 0.197612 3.377756
RightLeg -2.617870 -0.000000 0.000000
RightFoot -10.306583 -11.412303 10.842197
RightToeBase 5.529180 -0.000000 -0.000000
978
root 0.797502 32.908424 -2.038460 9.449444 2.142755 -1.398828
Spine -8.031031 -3.431549 -0.752955
Head 7.847625 -3.169934 -2.071288
LeftShoulder -22.819117 36.699299 21.417415
LeftArm 57.982997 -60.595289 -53.653505
LeftForeArm 15.317224 -0.000000 0.915073
LeftHand 3.707138 -0.000000 9.084820
LeftHandThumb1 -26.253704 0.000000 33.147579
RightShoulder -8.572148 5.893914 -32.898597
RightArm 6.058349 25.454400 41.437782
RightForeArm -11.914973 -0.000000 0.978572
RightHand 2.441859 -0.000000 -3.124712
RightHandThumb1 -24.326973 -0.000000 -32.862282
LeftUpLeg -0.986130 -10.242275 2.901411
LeftLeg -5.286782 -0.000000 0.000000
LeftFoot -4.008641 7.870005 -16.767867
LeftToeBase -15.496219 -0.000000 0.000000
RightUpLeg -2.860684 0.278361 3.407902
RightLeg -2.664827 -0.000000 0.000000
RightFoot -9.771561 -11.464413 10.400967
RightToeBase 5.016797 -0.000000 -0.000000
979
root 0.799175 32.913479 -2.030719 9.534796 2.161770 -1.446374
Spine -8.185444 -3.392231 -0.599059
Head 7.869923 -3.190098 -2.146815
LeftShoulder -22.839872 36.737967 21.278552
LeftArm 57.804452 -60.477815 -53.439505
LeftForeArm 15.234858 -0.000000 0.856500
LeftHand 3.478496 -0.000000 9.272675
LeftHandThumb1 -26.253704 0.000000 33.147579
RightShoulder -8.620549 5.755064 -32.800922
RightArm 5.963574 25.244007 41.244452
RightForeArm -11.690618 -0.000000 0.910072
RightHand 2.226200 -0.000000 -2.727786
RightHandThumb1 -24.326973 -0.000000 -32.862282
LeftUpLeg -1.083602 -10.294420 2.948681
LeftLeg -5.272166 -0.000000 0.000000
LeftFoot -3.954118 8.056480 -16.666427
LeftToeBase -15.424948 -0.000000 0.000000
RightUpLeg -2.938849 0.386278 3.447959
RightLeg -2.733939 -0.000000 0.000000
RightFoot -9.121749 -11.586148 9.826418
RightToeBase 3.980875 -0.000000 -0.000000
